<svg xmlns="http://www.w3.org/2000/svg" xmlns:xlink="http://www.w3.org/1999/xlink" viewBox="0 0 55.98 38.3"><defs><style>.cls-1{fill:#fff;}.cls-1,.cls-3,.cls-5{fill-rule:evenodd;}.cls-2{mask:url(#mask);}.cls-3{fill:#00dc5a;}.cls-4{mask:url(#mask-2);}.cls-5{fill:#2f2e46;}.cls-6{mask:url(#mask-3);}</style><mask id="mask" x="20.25" y="1.45" width="35.73" height="36.86" maskUnits="userSpaceOnUse"><g id="mask7"><path class="cls-1" d="M26.77,37.73l-6-6.15a2,2,0,0,1,0-2.75L46.8,2a1.85,1.85,0,0,1,2.66,0l6,6.16a2,2,0,0,1,0,2.74l-26,26.82A1.84,1.84,0,0,1,26.77,37.73Z"/></g></mask><mask id="mask-2" x="10.61" y="0.72" width="25.82" height="26.43" maskUnits="userSpaceOnUse"><g id="mask8"><path class="cls-1" d="M17.15,26.58l-6-6.12a2,2,0,0,1,0-2.74L27.21,1.29a1.85,1.85,0,0,1,2.67,0l6,6.13a2,2,0,0,1,0,2.74l-16,16.42A1.86,1.86,0,0,1,17.15,26.58Z"/></g></mask><mask id="mask-3" x="0" y="0" width="15.61" height="16.11" maskUnits="userSpaceOnUse"><g id="mask9"><path class="cls-1" d="M6.48,15.54.55,9.42a2,2,0,0,1,0-2.73L6.48.57a1.83,1.83,0,0,1,2.65,0l5.93,6.12a2,2,0,0,1,0,2.73L9.13,15.54A1.84,1.84,0,0,1,6.48,15.54Z"/></g></mask></defs><g id="Capa_2" data-name="Capa 2"><g id="Capa_1-2" data-name="Capa 1"><g class="cls-2"><path class="cls-3" d="M20.25,38.3H56V1.45H20.25Z"/></g><g class="cls-4"><path class="cls-5" d="M10.61,27.15H36.43V.72H10.61Z"/></g><g class="cls-6"><path class="cls-5" d="M0,16.11H15.61V0H0Z"/></g></g></g></svg>